<svg xmlns="http://www.w3.org/2000/svg" width="137.748" height="132.729" viewBox="0 0 137.748 132.729"><defs><style>.a{fill:#fb8500;}</style></defs><path class="a" d="M133.1,79.493s2.646-31.23-34.04-31.23H40.637C4,48.263,6.6,79.493,6.6,79.493H133.1ZM6.6,149.762S4,180.992,40.637,180.992h58.43c36.686,0,34.04-31.23,34.04-31.23H6.6Zm121.018-15.615c6,0,10.854-8.7,10.854-19.511,0-10.876-4.849-19.527-10.854-19.527H11.579C5.6,95.109.72,103.759.72,114.635c0,10.813,4.881,19.511,10.859,19.511H127.614Z" transform="translate(-0.72 -48.263)"/></svg>