<svg xmlns="http://www.w3.org/2000/svg" width="204.103" height="130" viewBox="0 0 204.103 130"><defs><style>.a{fill:#219ebc;}</style></defs><path class="a" d="M195.6,4.5H31.182a8.321,8.321,0,0,0-8.5,8.125v2.708H8.5A8.321,8.321,0,0,0,0,23.458v92.083C0,126.012,8.884,134.5,19.843,134.5H187.094c9.394,0,17.009-7.275,17.009-16.25V12.625A8.321,8.321,0,0,0,195.6,4.5ZM19.843,118.25a2.774,2.774,0,0,1-2.835-2.708V31.583h5.67v83.958A2.774,2.774,0,0,1,19.843,118.25Zm83.625-5.417H49.608a4.161,4.161,0,0,1-4.252-4.062v-2.708A4.161,4.161,0,0,1,49.608,102h53.86a4.161,4.161,0,0,1,4.252,4.063v2.708A4.161,4.161,0,0,1,103.469,112.833Zm73.7,0h-53.86a4.161,4.161,0,0,1-4.252-4.062v-2.708A4.161,4.161,0,0,1,123.312,102h53.86a4.161,4.161,0,0,1,4.252,4.063v2.708A4.161,4.161,0,0,1,177.173,112.833Zm-73.7-32.5H49.608a4.161,4.161,0,0,1-4.252-4.062V73.563A4.161,4.161,0,0,1,49.608,69.5h53.86a4.161,4.161,0,0,1,4.252,4.063v2.708A4.161,4.161,0,0,1,103.469,80.333Zm73.7,0h-53.86a4.161,4.161,0,0,1-4.252-4.062V73.563a4.161,4.161,0,0,1,4.252-4.062h53.86a4.161,4.161,0,0,1,4.252,4.063v2.708A4.161,4.161,0,0,1,177.173,80.333Zm0-32.5H49.608a4.161,4.161,0,0,1-4.252-4.062V30.229a4.161,4.161,0,0,1,4.252-4.063H177.173a4.161,4.161,0,0,1,4.252,4.063V43.771A4.161,4.161,0,0,1,177.173,47.833Z" transform="translate(0 -4.5)"/></svg>