<svg xmlns="http://www.w3.org/2000/svg" viewBox="0 0 508 508" style="enable-background:new 0 0 508 508" xml:space="preserve">
	<circle style="fill:#324a5e" cx="254" cy="254" r="254"/>
		<path style="fill:#e6e9ee" d="M254 0c-36.4 0-71.2 7.6-102.4 21.6 4.4 17.2 11.2 34.8 14 44.8A27 27 0 0 0 179.2 84s41.2 19.6 45.2 20.8c4.4 1.2 4.8 5.6 4.8 5.6-.4 5.6 2 8.8 2 8.8v5.2c-1.2 2.8-2.4 14-2.4 14-6-.8-7.6 11.2-7.6 11.2-2.4 13.6 2 13.2 2 13.2a33.6 33.6 0 0 0 1.2 26.4c9.6 18 29.2 15.2 29.2 15.2s19.6 2.4 29.2-15.2c0 0 6.4-10.8 1.2-26.4 0 0 4.4.4 2-13.2 0 0-1.6-12-7.6-11.2 0 0-1.2-11.6-2.4-14v-5.2s2.8-3.2 2.4-8.8c0 0 .4-4.4 4.8-5.6S328.4 84 328.4 84s10-4 13.6-17.6c2.8-9.6 9.6-27.6 14-44.8A246.6 246.6 0 0 0 254 0z"/>
		<path style="fill:#ff7058" d="M196 218.8s-10.8-6.4-26.8-1.2c0 0 .4-4.4-13.2-2 0 0-12 1.6-11.2 7.6 0 0-11.6 1.2-14 2.4h-5.2s-3.2-2.8-8.8-2.4c0 0-4.4-.4-5.6-4.8-1.2-4.4-20.8-45.2-20.8-45.2s-4-9.6-17.6-13.6c-10.4-2.8-30-10.4-48-14.8A251.7 251.7 0 0 0 0 254.4c0 20.8 2.4 41.2 7.2 60.4H8s-.4 0-.4.4c3.2 12.8 7.2 25.2 12.4 37.2 19.2-4 41.6-12.8 52.8-16a27 27 0 0 0 17.6-13.6s19.6-41.2 20.8-45.2c1.2-4.4 5.6-4.8 5.6-4.8 5.6.4 8.8-2 8.8-2h5.2c2.8 1.2 14 2.4 14 2.4-.8 6 11.2 7.6 11.2 7.6 13.6 2.4 13.2-2 13.2-2 16 5.2 26.8-1.2 26.8-1.2 18-9.6 15.2-29.2 15.2-29.2s2.8-20-15.2-29.6z"/>
		<path style="fill:#ffd05b" d="M328.8 411.6s-41.2-19.6-45.2-20.8c-4.4-1.2-4.8-5.6-4.8-5.6.4-5.6-2.4-8.8-2.4-8.8v-5.2c1.2-2.8 2.4-14 2.4-14 6 .8 7.6-11.2 7.6-11.2 2.4-13.6-2-13.2-2-13.2 5.2-16-1.2-26.8-1.2-26.8-9.6-18-29.2-15.2-29.2-15.2s-19.6-2.8-29.2 15.2c0 0-6.4 10.8-1.2 26.8 0 0-4.4-.4-2 13.2 0 0 1.6 12 7.6 11.2a85 85 0 0 0 2.4 14v5.2s-2.8 3.2-2 8.8c0 0-.4 4.4-4.8 5.6-4.4 1.2-45.2 20.8-45.2 20.8s-9.6 4-13.6 17.6c-3.6 12-13.2 36-16.8 56 32 14.4 67.6 22.8 105.2 22.8s73.2-8 105.2-22.8c-3.6-20-13.2-44-16.8-56-4.4-13.6-14-17.6-14-17.6z"/>
		<path style="fill:#54c0eb" d="M483.2 144.4c-18 4.4-37.6 12-48 14.8a27 27 0 0 0-17.6 13.6S398 214 396.8 218.4s-5.6 4.8-5.6 4.8c-5.6-.4-8.8 2.4-8.8 2.4h-5.2c-2.8-1.2-14-2.4-14-2.4.8-6-11.2-7.6-11.2-7.6-13.6-2.4-13.2 2-13.2 2-15.6-5.2-26.8 1.2-26.8 1.2-18 9.6-15.2 29.2-15.2 29.2s-2.8 19.6 15.2 29.2c0 0 10.8 6.4 26.8 1.2 0 0-.4 4.4 13.2 2 0 0 12-1.6 11.2-7.6 0 0 11.6-1.2 14-2.4h5.2s3.2 2.8 8.8 2c0 0 4.4.4 5.6 4.8s20.8 45.2 20.8 45.2 4 9.6 17.6 13.6c11.2 3.2 33.6 12 52.8 16 12.8-30 19.6-63.2 19.6-98a246 246 0 0 0-24.4-109.6z"/>
</svg>