<svg xmlns="http://www.w3.org/2000/svg" width="1554.587" height="852.454" viewBox="0 0 1554.587 852.454"><defs><style>.a{fill:#10cfc9;}.b{fill:#fca311;}.c{fill:#ffb703;}.d{fill:#25324f;font-size:500px;font-family:Montserrat-Bold, Montserrat;font-weight:700;}</style></defs><g transform="translate(3494.229 2299.476)"><path class="a" d="M649.035,358.4c-79.958,100.679-248.87,141.519-414.99,97.533C146.224,432.68,61.547,386.088,19.583,295.87-55.432,134.6,102.071,83.09,205.061,66.674c49.8-7.938,96.7-21.272,139.565-39.426,77.111-32.661,213.6-61.6,316.523,74.445C735.748,200.3,702.3,291.339,649.035,358.4Z" transform="translate(-2648.722 -1920.524)"/><path class="b" d="M649.035,358.4c-79.958,100.679-248.87,141.519-414.99,97.533C146.224,432.68,61.547,386.088,19.583,295.87-55.432,134.6,102.071,83.09,205.061,66.674c49.8-7.938,96.7-21.272,139.565-39.426,77.111-32.661,213.6-61.6,316.523,74.445C735.748,200.3,702.3,291.339,649.035,358.4Z" transform="translate(-2668.722 -1699.773) rotate(180)"/><path class="c" d="M649.035,125.626C569.077,15.742,400.165-28.832,234.046,19.175c-87.822,25.38-172.5,76.232-214.463,174.7-75.015,176.019,82.488,232.235,185.478,250.152,49.8,8.664,96.7,23.217,139.565,43.03,77.111,35.647,213.6,67.234,316.523-81.252C735.748,298.182,702.3,198.82,649.035,125.626Z" transform="translate(-2789.722 -1699.773) rotate(180)"/></g><text class="d" transform="matrix(0.966, -0.259, 0.259, 0.966, 69.056, 206.691)"><tspan x="0" y="484">L</tspan></text><text class="d" transform="matrix(0.996, -0.087, 0.087, 0.996, 379.362, 82.453)"><tspan x="0" y="484">e</tspan></text><text class="d" transform="matrix(0.996, 0.087, -0.087, 0.996, 767.015, 40.911)"><tspan x="0" y="484">t</tspan></text><text class="d" transform="matrix(0.985, 0.174, -0.174, 0.985, 1007.399, 0)"><tspan x="0" y="484">&apos;</tspan></text><text class="d" transform="matrix(0.985, 0.174, -0.174, 0.985, 1078.052, 87.102)"><tspan x="0" y="484">s</tspan></text><text class="d" transform="matrix(0.996, 0.087, -0.087, 0.996, 1365.311, 51.028)"><tspan x="0" y="484">!</tspan></text></svg>