<svg xmlns="http://www.w3.org/2000/svg" width="156.41" height="128.205" viewBox="0 0 156.41 128.205"><defs><style>.a{fill:#ffb703;}</style></defs><path class="a" d="M128.48,20.565H111.722V9.118c0-3.793-3.751-6.868-8.379-6.868H8.379C3.751,2.25,0,5.325,0,9.118V123.587c0,3.793,3.751,6.868,8.379,6.868h94.963c4.628,0,8.379-3.075,8.379-6.868V111.536l28.142-10.3c10.051-3.677,16.547-11.883,16.547-20.906V43.459C156.41,30.835,143.881,20.565,128.48,20.565Zm5.586,59.77a4.64,4.64,0,0,1-3.309,4.181L111.722,91.48V38.88H128.48c3.08,0,5.586,2.054,5.586,4.579ZM72.619,102.983c-3.085,0-5.586-2.05-5.586-4.579V34.3c0-2.529,2.5-4.579,5.586-4.579s5.586,2.05,5.586,4.579V98.4C78.205,100.933,75.7,102.983,72.619,102.983Zm-33.517,0c-3.085,0-5.586-2.05-5.586-4.579V34.3c0-2.529,2.5-4.579,5.586-4.579s5.586,2.05,5.586,4.579V98.4C44.689,100.933,42.188,102.983,39.1,102.983Z" transform="translate(0 -2.25)"/></svg>