<svg xmlns="http://www.w3.org/2000/svg" width="147.667" height="151" viewBox="0 0 147.667 151"><defs><style>.a{fill:#8ecae6;}</style></defs><path class="a" d="M67.07,72.239a88.58,88.58,0,0,0-6.758-32.174A98.7,98.7,0,0,0,6.633,106.056a75.822,75.822,0,0,0,16.94,24.686,101.4,101.4,0,0,1,43.5-58.5ZM56.084,31.33A86.174,86.174,0,0,0,39,9.81,75.852,75.852,0,0,0,1.78,89.62a109.175,109.175,0,0,1,54.3-58.29Zm55.853,50.254c2.56-30.378-8.128-60.116-29.028-80.48A70.422,70.422,0,0,0,53.464,3.691,102.783,102.783,0,0,1,81.3,71.484a83.552,83.552,0,0,0,30.636,10.1ZM74.811,84.475a85.946,85.946,0,0,0-23.877,22.1c24.413,17.441,54.93,22.859,82.618,14.55a75.991,75.991,0,0,0,12.564-27.364,98,98,0,0,1-24.086,3.166A98.109,98.109,0,0,1,74.811,84.475ZM45.545,114.823a87.768,87.768,0,0,0-9.557,25.629,72.282,72.282,0,0,0,86.042-6.727c-33.613,4.9-60.527-7.549-76.485-18.9ZM99.224,5.061c16.464,21.429,24.562,49.067,22.21,77.192a83.617,83.617,0,0,0,26.706-4.322c0-.609.089-1.218.089-1.826,0-32.813-20.454-60.6-49.005-71.044Z" transform="translate(-0.563 -0.563)"/></svg>